<?xml version="1.0" standalone="no"?>
<!DOCTYPE svg PUBLIC "-//W3C//DTD SVG 20010904//EN"
 "http://www.w3.org/TR/2001/REC-SVG-20010904/DTD/svg10.dtd">
<svg version="1.0" xmlns="http://www.w3.org/2000/svg"
 width="600.000000pt" height="600.000000pt" viewBox="0 0 600.000000 600.000000"
 preserveAspectRatio="xMidYMid meet">
<metadata>
Created by potrace 1.14, written by Peter Selinger 2001-2017
</metadata>
<g transform="translate(0.000000,600.000000) scale(0.100000,-0.100000)"
fill="#000000" stroke="none">
<path d="M1560 5474 c-96 -58 -181 -108 -189 -113 -10 -6 -3 -23 30 -74 24
-37 47 -67 51 -67 10 0 371 189 382 200 10 10 -74 160 -89 159 -5 0 -89 -48
-185 -105z"/>
<path d="M766 5130 c-27 -10 -67 -33 -88 -50 l-38 -31 0 41 0 40 -110 0 -110
0 0 -475 0 -475 114 0 114 0 4 298 c5 323 8 345 66 405 34 35 117 61 169 51
132 -24 152 -90 153 -506 l0 -248 116 0 115 0 -3 353 c-3 339 -4 354 -26 408
-30 76 -87 139 -158 174 -52 26 -72 29 -164 32 -86 3 -114 0 -154 -17z"/>
<path d="M2177 5140 c-162 -41 -298 -178 -342 -345 -19 -74 -19 -213 0 -284
43 -164 158 -284 318 -333 55 -16 87 -19 170 -16 114 5 172 27 247 95 l40 35
0 -56 0 -56 110 0 110 0 0 475 0 475 -110 0 -110 0 0 -57 0 -57 -42 41 c-68
66 -124 87 -248 90 -58 1 -122 -2 -143 -7z m280 -236 c97 -47 147 -133 146
-254 0 -117 -41 -194 -131 -243 -98 -53 -228 -44 -319 22 -139 101 -126 370
24 462 87 54 186 58 280 13z"/>
<path d="M3337 5136 c-39 -14 -55 -25 -99 -65 l-28 -25 0 42 0 42 -105 0 -105
0 0 -475 0 -475 114 0 114 0 4 298 c6 331 13 380 68 425 59 50 176 47 235 -4
19 -17 40 -47 46 -67 8 -24 14 -147 16 -344 l5 -308 113 0 113 0 4 293 c6 331
12 373 73 425 61 54 168 55 228 2 56 -48 60 -74 64 -411 l5 -307 45 -6 c25 -3
77 -6 114 -6 l69 0 0 328 c0 347 -5 394 -50 482 -29 57 -85 109 -149 139 -51
24 -67 26 -181 26 -116 0 -129 -2 -180 -27 -30 -15 -72 -45 -93 -66 l-39 -39
-45 48 c-60 65 -126 89 -236 89 -45 -1 -99 -7 -120 -14z"/>
<path d="M4937 5140 c-162 -41 -298 -178 -342 -345 -19 -74 -19 -213 0 -284
43 -164 158 -284 318 -333 55 -16 87 -19 170 -16 114 5 172 27 247 95 l40 35
0 -56 0 -56 110 0 110 0 0 475 0 475 -110 0 -110 0 0 -57 0 -57 -42 41 c-68
66 -124 87 -248 90 -58 1 -122 -2 -143 -7z m280 -236 c97 -47 147 -133 146
-254 0 -117 -41 -194 -131 -243 -98 -53 -228 -44 -319 22 -139 101 -126 370
24 462 87 54 186 58 280 13z"/>
<path d="M1450 4655 l0 -475 115 0 115 0 0 475 0 475 -115 0 -115 0 0 -475z"/>
<path d="M4537 3992 c-45 -26 -57 -44 -38 -56 10 -6 101 41 101 52 -1 28 -18
29 -63 4z"/>
<path d="M3660 3960 c0 -49 -1 -50 -30 -50 -23 0 -30 -4 -30 -20 0 -16 7 -20
30 -20 l30 0 0 -110 c0 -103 1 -110 20 -110 19 0 20 7 20 110 l0 110 30 0 c23
0 30 4 30 20 0 16 -7 20 -30 20 -29 0 -30 1 -30 50 0 43 -3 50 -20 50 -17 0
-20 -7 -20 -50z"/>
<path d="M4280 3960 c0 -49 -1 -50 -30 -50 -23 0 -30 -4 -30 -20 0 -16 7 -20
30 -20 l30 0 0 -110 c0 -103 1 -110 20 -110 19 0 20 7 20 110 l0 110 30 0 c23
0 30 4 30 20 0 16 -7 20 -30 20 -29 0 -30 1 -30 50 0 43 -3 50 -20 50 -17 0
-20 -7 -20 -50z"/>
<path d="M5040 3980 c0 -23 4 -30 20 -30 16 0 20 7 20 30 0 23 -4 30 -20 30
-16 0 -20 -7 -20 -30z"/>
<path d="M3456 3899 c-19 -15 -26 -30 -26 -53 0 -37 19 -58 73 -81 28 -11 37
-21 37 -39 0 -48 -56 -62 -75 -18 -12 27 -45 30 -45 3 0 -56 84 -89 131 -52
59 46 45 109 -31 142 -45 19 -51 25 -48 48 4 34 42 41 60 12 15 -24 48 -28 48
-6 0 24 -46 65 -73 65 -13 0 -36 -9 -51 -21z"/>
<path d="M3852 3904 c-12 -8 -22 -10 -22 -5 0 6 -9 11 -20 11 -19 0 -20 -7
-20 -130 0 -123 1 -130 20 -130 18 0 20 8 22 97 l3 98 32 20 c32 20 45 55 20
55 -7 0 -23 -7 -35 -16z"/>
<path d="M3985 3901 c-104 -48 -100 -203 5 -245 52 -21 78 -20 123 3 29 15 37
16 37 5 0 -8 9 -14 20 -14 19 0 20 7 20 130 0 123 -1 130 -20 130 -11 0 -20
-7 -20 -15 0 -12 -6 -12 -37 5 -46 25 -76 25 -128 1z m114 -35 c67 -35 65
-143 -4 -174 -91 -41 -179 51 -131 137 26 47 84 63 135 37z"/>
<path d="M4465 3902 c-50 -24 -75 -66 -75 -126 0 -135 194 -184 256 -65 13 26
13 29 -2 29 -9 0 -32 -13 -51 -30 -18 -16 -45 -30 -59 -30 -48 0 -104 42 -104
79 0 7 42 11 120 11 133 0 131 -1 101 67 -34 74 -110 100 -186 65z m124 -48
c17 -14 31 -30 31 -35 0 -5 -43 -9 -96 -9 l-96 0 14 23 c34 51 100 61 147 21z"/>
<path d="M4771 3903 c-68 -34 -93 -130 -51 -199 38 -60 143 -81 192 -37 17 15
18 15 18 -5 0 -34 -11 -52 -42 -68 -42 -22 -90 -11 -122 26 -26 32 -56 40 -56
15 0 -27 54 -76 93 -84 80 -19 150 21 167 95 5 21 10 90 10 152 l0 112 -25 0
c-15 0 -25 -6 -25 -14 0 -11 -8 -10 -37 5 -45 23 -78 24 -122 2z m128 -49 c26
-22 31 -33 31 -71 0 -36 -6 -50 -30 -75 -27 -27 -36 -30 -72 -25 -54 7 -79 34
-85 90 -5 41 -2 49 25 77 40 39 88 41 131 4z"/>
<path d="M5195 3902 c-50 -24 -75 -66 -75 -126 0 -135 194 -184 256 -65 13 26
13 29 -2 29 -9 0 -32 -13 -51 -30 -18 -16 -45 -30 -59 -30 -48 0 -104 42 -104
79 0 7 42 11 120 11 133 0 131 -1 101 67 -34 74 -110 100 -186 65z m124 -48
c17 -14 31 -30 31 -35 0 -5 -43 -9 -96 -9 l-96 0 14 23 c34 51 100 61 147 21z"/>
<path d="M5466 3899 c-19 -15 -26 -30 -26 -53 0 -37 19 -58 73 -81 28 -11 37
-21 37 -39 0 -48 -56 -62 -75 -18 -12 27 -45 30 -45 3 0 -56 84 -89 131 -52
59 46 45 109 -31 142 -45 19 -51 25 -48 48 4 34 42 41 60 12 15 -24 48 -28 48
-6 0 24 -46 65 -73 65 -13 0 -36 -9 -51 -21z"/>
<path d="M5040 3780 c0 -123 1 -130 20 -130 19 0 20 7 20 130 0 123 -1 130
-20 130 -19 0 -20 -7 -20 -130z"/>
<path d="M2871 3484 c-262 -70 -423 -341 -356 -599 69 -265 340 -427 600 -360
265 69 427 339 360 600 -70 266 -344 429 -604 359z m172 -143 c10 -10 19 -32
19 -50 2 -70 -82 -101 -129 -47 -27 32 -29 53 -7 84 30 44 79 49 117 13z m182
-56 c61 -25 70 -104 18 -145 -71 -55 -166 19 -132 103 7 17 26 35 43 43 38 16
31 17 71 -1z m-386 -40 c16 -21 18 -31 10 -54 -18 -51 -83 -59 -108 -12 -16
29 -13 49 9 71 28 28 64 25 89 -5z m-101 -201 c24 -17 29 -53 10 -72 -19 -19
-66 -15 -78 7 -14 28 -13 38 10 61 24 24 29 24 58 4z m560 0 c12 -8 22 -26 22
-38 0 -54 -77 -64 -95 -12 -8 24 -6 31 14 47 28 23 31 23 59 3z m-477 -194
c22 -12 26 -59 7 -78 -19 -19 -55 -14 -72 10 -20 29 -20 34 4 58 23 23 33 24
61 10z m403 -6 c19 -18 21 -55 4 -72 -19 -19 -55 -14 -72 10 -20 29 -20 34 4
58 24 24 43 25 64 4z m-196 -86 c31 -31 -5 -92 -49 -81 -51 14 -43 93 9 93 15
0 33 -5 40 -12z"/>
<path d="M402 1798 l3 -1103 31 -65 c39 -83 111 -155 194 -194 l65 -31 1102
-3 1103 -2 0 975 0 975 -27 5 c-227 49 -419 217 -491 430 -11 33 -23 72 -27
88 l-5 27 -975 0 -975 0 2 -1102z"/>
<path d="M3644 2873 c-29 -135 -85 -238 -181 -334 -93 -95 -200 -153 -335
-183 l-28 -6 0 -975 0 -975 1103 2 1102 3 58 27 c80 38 160 117 200 197 l32
66 3 1102 2 1103 -975 0 -975 0 -6 -27z"/>
</g>
</svg>
